<?xml version="1.0" standalone="no"?>
<!DOCTYPE svg PUBLIC "-//W3C//DTD SVG 20010904//EN"
 "http://www.w3.org/TR/2001/REC-SVG-20010904/DTD/svg10.dtd">
<svg version="1.0" xmlns="http://www.w3.org/2000/svg"
 width="116.000000pt" height="107.000000pt" viewBox="0 0 116.000000 107.000000"
 preserveAspectRatio="xMidYMid meet">

<g transform="translate(0.000000,107.000000) scale(0.100000,-0.100000)"
fill="#000000" stroke="none">
<path d="M480 939 c-111 -22 -229 -114 -283 -220 -124 -248 24 -539 300 -591
159 -29 335 52 420 193 183 307 -85 687 -437 618z m207 -90 c79 -29 162 -113
192 -194 61 -162 -7 -343 -158 -419 -171 -87 -369 -24 -458 146 -25 48 -28 63
-28 153 0 87 3 106 25 149 32 63 117 139 183 165 71 27 169 27 244 0z"/>
<path d="M557 840 c-4 -8 -15 -48 -26 -88 -11 -41 -23 -82 -26 -93 -6 -17 -1
-19 59 -19 l65 0 -14 48 c-39 132 -53 166 -58 152z"/>
<path d="M345 565 c-55 -18 -93 -35 -85 -38 13 -5 128 -39 183 -54 15 -4 17 3
17 56 0 33 -3 62 -7 64 -5 2 -53 -10 -108 -28z"/>
<path d="M670 536 c0 -77 -14 -74 135 -27 l88 27 -94 27 c-52 14 -102 29 -111
32 -16 6 -18 0 -18 -59z"/>
<path d="M503 418 c2 -7 17 -57 33 -110 15 -54 29 -97 30 -95 2 1 14 43 29 92
14 50 28 98 31 108 5 15 -2 17 -61 17 -50 0 -66 -3 -62 -12z"/>
</g>
</svg>
